<svg xmlns="http://www.w3.org/2000/svg" viewBox="0 0 1000 1000" fill-rule="evenodd" stroke-linecap="round" stroke-linejoin="round" stroke-miterlimit="1.5" xmlns:v="https://vecta.io/nano">
    <path d="M19.98 515.976c.259-2.11 4.011-28.915 79.686-51.826 30.563-9.253 72.853-17.87 131.384-23.968 31.333-3.265 67.321-5.809 108.652-7.342 31.981-1.187 67.159-1.769 105.86-1.609 39.732.161 77.244-20.089 112.798-49.284 35.97-29.539 69.936-68.236 102.17-104.21 49.403-55.14 94.737-103.889 136.977-103.482h42.456l47.119 220.08 44.002-6.27 1.909 25.936 45.418 10.314 1.728 144.123-44.023 11.127.677 29.267-45.038-6.877-37.739 222.373s-31.665 1.594-47.505 1.406c-25.469-.306-52.546-17.31-81.195-42.051-36.524-31.541-75.607-75.654-117.185-113.764-49.267-45.163-102.036-81.898-158.199-79.308-44.658 2.062-84.69 2.996-120.571 3.002-46.996.011-86.875-1.569-120.709-4.284-45.796-3.675-80.52-9.433-106.841-16.151-83.86-21.405-82.397-52.56-81.83-57.204z" fill="none" stroke="#fff" stroke-width="12.505" />
</svg>