<?xml version="1.0" encoding="UTF-8" standalone="no"?>
<!DOCTYPE svg PUBLIC "-//W3C//DTD SVG 1.1//EN" "http://www.w3.org/Graphics/SVG/1.1/DTD/svg11.dtd">
<svg width="100%" height="100%" viewBox="0 0 2000 2000" version="1.1" xmlns="http://www.w3.org/2000/svg" xmlns:xlink="http://www.w3.org/1999/xlink" xml:space="preserve" xmlns:serif="http://www.serif.com/" style="fill-rule:evenodd;clip-rule:evenodd;stroke-linecap:round;stroke-linejoin:round;stroke-miterlimit:1.5;">
    <path d="M916.782,343.653L1014.91,342.44L1014.34,374.179C1038.53,392.516 1034.45,410.561 1015.52,428.454C1015.52,428.454 1002.37,602.532 1015.2,637.95C1054.17,745.542 1178.46,883.617 1207.8,1044.66C1241.75,1230.98 1218.88,1755.9 1218.88,1755.9C1068.21,1721.75 907.61,1723.72 736.263,1764.82C736.263,1764.82 691.038,1237.77 718.64,1049.24C740.573,899.423 867.958,737.149 901.876,633.603C909.111,611.514 913.218,425.109 913.218,425.109C897.425,407.246 899.9,387.574 915.746,369.695L916.782,343.653Z" style="fill:none;"/>
    <clipPath id="_clip1">
        <path d="M916.782,343.653L1014.91,342.44L1014.34,374.179C1038.53,392.516 1034.45,410.561 1015.52,428.454C1015.52,428.454 1002.37,602.532 1015.2,637.95C1054.17,745.542 1178.46,883.617 1207.8,1044.66C1241.75,1230.98 1218.88,1755.9 1218.88,1755.9C1068.21,1721.75 907.61,1723.72 736.263,1764.82C736.263,1764.82 691.038,1237.77 718.64,1049.24C740.573,899.423 867.958,737.149 901.876,633.603C909.111,611.514 913.218,425.109 913.218,425.109C897.425,407.246 899.9,387.574 915.746,369.695L916.782,343.653Z"/>
    </clipPath>
    <g clip-path="url(#_clip1)">
        <path d="M569.749,1062.46C569.749,1062.46 827.404,1028.88 920.932,1031.99C992.777,1034.38 1068.04,1076.04 1130.92,1081.12C1186.85,1085.63 1298.22,1062.46 1298.22,1062.46L1317.71,1822.66L601.671,1870.99C601.671,1870.99 568.002,1063.03 569.749,1062.46Z" style="fill:url(#_Linear2);"/>
    </g>
    <path d="M916.782,343.653L1014.91,342.44L1014.34,374.179C1038.53,392.516 1034.45,410.561 1015.52,428.454C1015.52,428.454 1002.37,602.532 1015.2,637.95C1054.17,745.542 1178.46,883.617 1207.8,1044.66C1241.75,1230.98 1218.88,1755.9 1218.88,1755.9C1068.21,1721.75 907.61,1723.72 736.263,1764.82C736.263,1764.82 691.038,1237.77 718.64,1049.24C740.573,899.423 867.958,737.149 901.876,633.603C909.111,611.514 913.218,425.109 913.218,425.109C897.425,407.246 899.9,387.574 915.746,369.695L916.782,343.653Z" style="fill:none;stroke:#000;stroke-width:4.88px;"/>
    <path d="M1224.59,1686.84C1295.2,1682.07 1408.69,1711.27 1489.18,1770.77C1541.87,1809.71 1580.48,1861.72 1582.23,1926.21C1582.35,1930.62 1586.03,1934.11 1590.44,1933.99C1594.86,1933.87 1598.34,1930.19 1598.22,1925.78C1596.34,1856.31 1555.45,1799.85 1498.69,1757.9C1415.01,1696.04 1296.93,1665.92 1223.51,1670.87C1219.11,1671.17 1215.77,1674.99 1216.07,1679.39C1216.37,1683.8 1220.18,1687.13 1224.59,1686.84Z" style="fill:#63b0d2;"/>
    <path d="M727.885,1648.9C645.357,1643.45 512.633,1676.65 418.56,1744.78C354.811,1790.94 308.874,1853.06 306.759,1929.51C306.636,1933.92 310.121,1937.6 314.534,1937.72C318.948,1937.85 322.63,1934.36 322.752,1929.95C324.729,1858.51 368.367,1800.88 427.945,1757.73C518.862,1691.89 647.07,1659.6 726.83,1664.87C731.236,1665.16 735.049,1661.82 735.34,1657.41C735.631,1653.01 732.291,1649.19 727.885,1648.9Z" style="fill:#63b0d2;"/>
    <defs>
        <linearGradient id="_Linear2" x1="0" y1="0" x2="1" y2="0" gradientUnits="userSpaceOnUse" gradientTransform="matrix(331.51,-808.092,808.092,331.51,706.602,1879.38)"><stop offset="0" style="stop-color:#5caccf;stop-opacity:1"/><stop offset="1" style="stop-color:#70b7d7;stop-opacity:1"/></linearGradient>
    </defs>
</svg>
