<?xml version="1.0" encoding="UTF-8" standalone="no"?>
<!DOCTYPE svg PUBLIC "-//W3C//DTD SVG 1.1//EN" "http://www.w3.org/Graphics/SVG/1.1/DTD/svg11.dtd">
<svg width="100%" height="100%" viewBox="0 0 2000 2000" version="1.1" xmlns="http://www.w3.org/2000/svg" xmlns:xlink="http://www.w3.org/1999/xlink" xml:space="preserve" xmlns:serif="http://www.serif.com/" style="fill-rule:evenodd;clip-rule:evenodd;stroke-linecap:round;stroke-linejoin:round;stroke-miterlimit:1.5;">
    <path d="M916.782,343.653L1014.91,342.44L1014.34,374.179C1038.53,392.516 1034.45,410.561 1015.52,428.454C1015.52,428.454 1002.37,602.532 1015.2,637.95C1054.17,745.542 1178.46,883.617 1207.8,1044.66C1241.75,1230.98 1218.88,1755.9 1218.88,1755.9C1068.21,1721.75 907.61,1723.72 736.263,1764.82C736.263,1764.82 691.038,1237.77 718.64,1049.24C740.573,899.423 867.958,737.149 901.876,633.603C909.111,611.514 913.218,425.109 913.218,425.109C897.425,407.246 899.9,387.574 915.746,369.695L916.782,343.653Z" style="fill:none;"/>
    <clipPath id="_clip1">
        <path d="M916.782,343.653L1014.91,342.44L1014.34,374.179C1038.53,392.516 1034.45,410.561 1015.52,428.454C1015.52,428.454 1002.37,602.532 1015.2,637.95C1054.17,745.542 1178.46,883.617 1207.8,1044.66C1241.75,1230.98 1218.88,1755.9 1218.88,1755.9C1068.21,1721.75 907.61,1723.72 736.263,1764.82C736.263,1764.82 691.038,1237.77 718.64,1049.24C740.573,899.423 867.958,737.149 901.876,633.603C909.111,611.514 913.218,425.109 913.218,425.109C897.425,407.246 899.9,387.574 915.746,369.695L916.782,343.653Z"/>
    </clipPath>
    <g clip-path="url(#_clip1)">
        <path d="M569.749,1062.46C569.749,1062.46 827.404,1028.88 920.932,1031.99C992.777,1034.38 1068.04,1076.04 1130.92,1081.12C1186.85,1085.63 1298.22,1062.46 1298.22,1062.46L1317.71,1822.66L601.671,1870.99C601.671,1870.99 568.002,1063.03 569.749,1062.46Z" style="fill:url(#_Linear2);"/>
    </g>
    <path d="M916.782,343.653L1014.91,342.44L1014.34,374.179C1038.53,392.516 1034.45,410.561 1015.52,428.454C1015.52,428.454 1002.37,602.532 1015.2,637.95C1054.17,745.542 1178.46,883.617 1207.8,1044.66C1241.75,1230.98 1218.88,1755.9 1218.88,1755.9C1068.21,1721.75 907.61,1723.72 736.263,1764.82C736.263,1764.82 691.038,1237.77 718.64,1049.24C740.573,899.423 867.958,737.149 901.876,633.603C909.111,611.514 913.218,425.109 913.218,425.109C897.425,407.246 899.9,387.574 915.746,369.695L916.782,343.653Z" style="fill:none;stroke:black;stroke-width:4.88px;"/>
    <g transform="matrix(1,1.2201e-16,-1.2201e-16,-0.00371071,1.6265e-13,1697.21)">
        <path d="M1224.05,-477.065C1344.43,-485.185 1586.76,-377.954 1591.31,-210.014C1595.69,-48.665 1598.75,1039.44 1598.15,2218.34C1597.56,3397.23 1593.52,4223.35 1589.14,4062C1584.62,3895.05 1343.72,3826.7 1224.05,3834.77C1219.64,3835.07 1216.05,2869.28 1216.05,1679.39C1216.05,489.51 1219.63,-476.767 1224.05,-477.065Z" style="fill:rgb(99,176,210);"/>
    </g>
    <g transform="matrix(-1.12678,1.36603e-16,1.33843e-16,-0.0110992,2099.4,1712.14)">
        <path d="M1588.79,2631.71C1592.18,2703.74 1595.68,2513 1596.9,2172.12C1598.24,1798.23 1596.34,1384.39 1592.65,1248.54C1592.07,1227.2 1588.5,1177.02 1582.33,1157.73C1538.77,1021.43 1332.13,950.789 1224.05,958.08C1220.13,958.344 1216.95,1281.53 1216.95,1679.33C1216.95,2077.14 1220.14,2399.89 1224.05,2399.63C1320.04,2393.15 1493.82,2447.99 1561.81,2555.9C1576.09,2578.56 1587.81,2627.55 1588.79,2631.71Z" style="fill:rgb(99,176,210);"/>
    </g>
    <defs>
        <linearGradient id="_Linear2" x1="0" y1="0" x2="1" y2="0" gradientUnits="userSpaceOnUse" gradientTransform="matrix(331.51,-808.092,808.092,331.51,706.602,1879.38)"><stop offset="0" style="stop-color:rgb(92,172,207);stop-opacity:1"/><stop offset="1" style="stop-color:rgb(112,183,215);stop-opacity:1"/></linearGradient>
    </defs>
</svg>
